<svg width="234" height="233" viewBox="0 0 234 233" fill="none" xmlns="http://www.w3.org/2000/svg">
<path d="M143.647 78.633C143.983 62.0275 129.705 50.1037 113.255 53.5696C99.3136 56.4924 91.7092 70.2268 94.6578 83.832C94.8992 84.9183 94.7182 85.9443 94.1146 86.91L80.0956 109.128C79.9675 109.329 79.792 109.494 79.5846 109.611C79.3773 109.727 79.1444 109.791 78.9067 109.796C78.669 109.801 78.4336 109.747 78.2214 109.64C78.0093 109.533 77.8268 109.375 77.6902 109.18C66.275 92.6779 64.0764 75.7706 71.0945 58.4581C88.7346 14.9269 149.725 15.9356 166.9 59.2082C173.495 75.7879 170.779 92.4968 160.795 107.731C152.777 119.992 145.449 131.717 138.81 142.908C138.667 143.145 138.468 143.343 138.23 143.485C137.993 143.626 137.724 143.707 137.448 143.72C137.171 143.733 136.896 143.677 136.647 143.558C136.397 143.439 136.18 143.26 136.016 143.038L121.377 122.707C121.169 122.423 121.051 122.082 121.037 121.728C121.023 121.373 121.114 121.021 121.299 120.716C126.403 112.06 131.973 103.196 138.008 94.1263C141.664 88.6257 143.543 83.4612 143.647 78.633Z" fill="#4560ED"/>
<path d="M90.3533 154.367C90.0171 170.972 104.295 182.896 120.745 179.43C134.686 176.508 142.291 162.773 139.342 149.168C139.101 148.082 139.282 147.056 139.885 146.09L153.904 123.872C154.033 123.671 154.208 123.506 154.415 123.389C154.623 123.273 154.856 123.209 155.093 123.204C155.331 123.199 155.566 123.253 155.779 123.36C155.991 123.467 156.173 123.625 156.31 123.82C167.725 140.322 169.924 157.229 162.905 174.542C145.265 218.073 84.275 217.064 67.1005 173.792C60.5048 157.212 63.2207 140.503 73.2047 125.269C81.2229 113.008 88.5514 101.283 95.1902 90.0917C95.3329 89.8549 95.532 89.6569 95.7696 89.5153C96.0072 89.3737 96.276 89.293 96.5523 89.2802C96.8286 89.2674 97.1038 89.323 97.3534 89.442C97.6031 89.561 97.8196 89.7397 97.9836 89.9624L112.623 110.293C112.831 110.577 112.949 110.918 112.963 111.272C112.977 111.627 112.886 111.979 112.701 112.284C107.597 120.94 102.027 129.804 95.992 138.874C92.3363 144.374 90.4568 149.539 90.3533 154.367Z" fill="#FBB507"/>
<path d="M119.891 98.1379C122.244 94.4333 124.675 90.6976 127.181 86.9309L119.891 98.1379ZM119.891 98.1379L108.533 82.3657L108.492 82.3083L108.45 82.2514C108.101 81.7785 107.726 81.3283 107.326 80.9028C105.805 73.4933 109.991 67.5365 115.922 66.293L115.935 66.2903C124.199 64.5492 130.812 70.1276 130.649 78.3617C130.613 79.9765 129.953 82.7596 127.182 86.9297L119.891 98.1379ZM65.1564 113.801C53.0516 94.7872 50.6525 74.2829 59.0462 53.5758L65.1564 113.801ZM65.1564 113.801C64.224 115.242 63.2814 116.69 62.3287 118.147C50.3978 136.355 46.6259 157.489 55.0193 178.592C76.3899 232.426 152.777 234.148 174.953 179.426C183.348 158.718 180.949 138.213 168.844 119.199C169.777 117.756 170.721 116.306 171.675 114.847L65.1564 113.801ZM178.983 54.4125C187.373 75.5118 183.602 96.6418 171.675 114.847L178.983 54.4125ZM178.983 54.4125C157.615 0.574123 81.2239 -1.14955 59.0468 53.5743L178.983 54.4125ZM125.55 150.749C125.899 151.221 126.274 151.672 126.674 152.097C128.195 159.507 124.009 165.464 118.078 166.707L118.065 166.71C109.801 168.451 103.188 162.872 103.351 154.638C103.387 153.024 104.047 150.243 106.815 146.075C109.323 142.306 111.754 138.569 114.109 134.862L125.467 150.634L125.508 150.692L125.55 150.749Z" stroke="white" stroke-width="26"/>
</svg>
